# xmcd
#
# Track frame offsets: 
#        150
#        16388
#        36031
#        57718
#        83221
#        103637
#        124927
#        144116
#        172739
#        186043
#
# Disc length: 2715 seconds
#
# Revision: 0
# Processed by: cddbd v1.4PL0 Copyright (c) Steve Scherf et al.
# Submitted via: ExactAudioCopy v0.90b4
#
DISCID=7c0a990a
DTITLE=Barry Levenson &Jake Sampson Band - Closer To The Blues
DYEAR=2000
DGENRE=Modern Electric Blues
TTITLE0=Miss Lucky's
TTITLE1=Shadows At Midnight
TTITLE2=Closer To The Blues
TTITLE3=Reap What You Sow
TTITLE4=Party Boy
TTITLE5=Don't Be Afraid
TTITLE6=Hard Pill To Swallow
TTITLE7=Every Saturday Night
TTITLE8=Handyman
TTITLE9=Holding The Blues
EXTD=
EXTT0=
EXTT1=
EXTT2=
EXTT3=
EXTT4=
EXTT5=
EXTT6=
EXTT7=
EXTT8=
EXTT9=
PLAYORDER=
